<svg xmlns="http://www.w3.org/2000/svg" width="132.802" height="63.888" viewBox="0 0 132.802 63.888">
  <g id="Group_4" data-name="Group 4" transform="translate(-37.166 -56.554)">
    <g id="Group_1" data-name="Group 1" transform="translate(107.499 66.301)">
      <path id="Path_1" data-name="Path 1" d="M209.149,99.109a2.253,2.253,0,0,1-.99-1.327,8.71,8.71,0,0,1-.3-2.585V89.468H206.3V87.6h1.56v-3.47h2.166V87.6h3.423v1.863h-3.423V94.8a12.1,12.1,0,0,0,.081,1.641,1.41,1.41,0,0,0,.385.838,1.373,1.373,0,0,0,.978.291l1.979-.116.14,1.77a16.034,16.034,0,0,1-2.515.28A3.872,3.872,0,0,1,209.149,99.109Z" transform="translate(-206.297 -82.412)" fill="#fff"/>
      <path id="Path_2" data-name="Path 2" d="M228.584,92.119h2.142v.769a8.738,8.738,0,0,1,1.816-.792,6.264,6.264,0,0,1,1.723-.233,3.987,3.987,0,0,1,2.305.583,3.151,3.151,0,0,1,1.188,1.8,12.549,12.549,0,0,1,.349,3.318v6.194h-2.166V97.615a11.317,11.317,0,0,0-.175-2.271,1.9,1.9,0,0,0-.652-1.164,2.271,2.271,0,0,0-1.386-.361,7.012,7.012,0,0,0-2.585.536l-.4.187v9.221h-2.166Z" transform="translate(-219.316 -86.926)" fill="#fff"/>
      <path id="Path_3" data-name="Path 3" d="M258.006,103.088a3.8,3.8,0,0,1-.862-2.678,3.255,3.255,0,0,1,.885-2.527,4.836,4.836,0,0,1,2.818-.99l3.307-.3v-.908a2.066,2.066,0,0,0-.442-1.478,1.742,1.742,0,0,0-1.3-.455,42.234,42.234,0,0,0-4.518.279l-.07-1.583a20.049,20.049,0,0,1,4.588-.583,4.117,4.117,0,0,1,2.981.92,3.932,3.932,0,0,1,.932,2.9v5.612a1.062,1.062,0,0,0,.314.71,1.632,1.632,0,0,0,.85.338l-.07,1.677a5.673,5.673,0,0,1-1.7-.222,3.438,3.438,0,0,1-1.235-.687,9.422,9.422,0,0,1-3.958.908A3.256,3.256,0,0,1,258.006,103.088Zm5.658-1.327.489-.163V98.174l-3.027.279a2.076,2.076,0,0,0-1.339.547,1.876,1.876,0,0,0-.431,1.339q0,1.864,1.56,1.863A8.625,8.625,0,0,0,263.664,101.76Z" transform="translate(-235.999 -86.926)" fill="#fff"/>
      <path id="Path_4" data-name="Path 4" d="M286.429,87.048h-1.4V85.185h1.4V84.3a8.676,8.676,0,0,1,.3-2.6,2.251,2.251,0,0,1,.99-1.316,3.876,3.876,0,0,1,1.921-.4l2.445.186-.023,1.793q-2.7-.069-2.142-.07a1.045,1.045,0,0,0-1.036.64,4.409,4.409,0,0,0-.291,1.782v.861h3.214v1.863H288.6v9.781h-2.166Z" transform="translate(-252.29 -79.992)" fill="#fff"/>
      <path id="Path_5" data-name="Path 5" d="M305.651,102.564a7.2,7.2,0,0,1-1.187-4.576,7.273,7.273,0,0,1,1.211-4.657,5.885,5.885,0,0,1,7.789.011,7.336,7.336,0,0,1,1.2,4.646,7.2,7.2,0,0,1-1.187,4.564,5.968,5.968,0,0,1-7.825.012Zm5.647-.827a2.155,2.155,0,0,0,.874-1.281,9.3,9.3,0,0,0,.256-2.468,9.528,9.528,0,0,0-.267-2.561,2.163,2.163,0,0,0-.885-1.292,3.229,3.229,0,0,0-1.712-.385,3.292,3.292,0,0,0-1.723.385,2.145,2.145,0,0,0-.9,1.3,9.519,9.519,0,0,0-.268,2.55,9.31,9.31,0,0,0,.256,2.457,2.146,2.146,0,0,0,.885,1.292,3.267,3.267,0,0,0,1.747.4A3.2,3.2,0,0,0,311.3,101.737Z" transform="translate(-263.641 -86.926)" fill="#fff"/>
      <path id="Path_6" data-name="Path 6" d="M334.747,103.68l-.7-.117.093-1.863a33.113,33.113,0,0,0,4.029.4,3.724,3.724,0,0,0,1.863-.373,1.3,1.3,0,0,0,.629-1.211,1.247,1.247,0,0,0-.314-.92,1.921,1.921,0,0,0-.8-.466,10.327,10.327,0,0,0-1.4-.291l-.559-.093a9.433,9.433,0,0,1-2.107-.536,2.6,2.6,0,0,1-1.2-.954,3.076,3.076,0,0,1-.42-1.723q0-3.61,4.425-3.61a22,22,0,0,1,3.493.349l.675.14-.046,1.816a30.66,30.66,0,0,0-4.005-.373q-2.375,0-2.376,1.444a1.093,1.093,0,0,0,.3.827,1.843,1.843,0,0,0,.78.431q.477.14,1.362.3.163.024.652.116a10.516,10.516,0,0,1,2.154.594,2.42,2.42,0,0,1,1.164.99,3.487,3.487,0,0,1,.384,1.77,3.41,3.41,0,0,1-1.118,2.829,5.462,5.462,0,0,1-3.447.9A21.745,21.745,0,0,1,334.747,103.68Z" transform="translate(-280.814 -86.959)" fill="#fff"/>
    </g>
    <g id="Group_2" data-name="Group 2" transform="translate(106.959 89.085)">
      <path id="Path_7" data-name="Path 7" d="M234.156,154.888h1.892v1.847H234a4.037,4.037,0,0,1-3.146-1.254,3.771,3.771,0,0,1-3.032,1.254h-1.527a3.747,3.747,0,0,1-2.963-1.186,3.82,3.82,0,0,1-2.986,1.186h-1.5a4.175,4.175,0,0,1-2.051-.479,5.034,5.034,0,0,1-2.029,3.625,6.293,6.293,0,0,1-3.9,1.185,5.513,5.513,0,0,1-4.6-2.1,6.068,6.068,0,0,1-1.254-3.83,5.579,5.579,0,0,1,.958-3.283l1.892-.41a6.4,6.4,0,0,0-1.026,3.488,4.35,4.35,0,0,0,1.185,3.146,3.819,3.819,0,0,0,2.85,1.14,4.051,4.051,0,0,0,3.1-1.163,3.6,3.6,0,0,0,.912-2.553v-6.086l1.96-1.049v4.24a1.985,1.985,0,0,0,2.211,2.28h1.072a1.985,1.985,0,0,0,2.211-2.28v-3.966l1.983-1.026v4.992a1.985,1.985,0,0,0,2.211,2.28h1.072a1.986,1.986,0,0,0,2.211-2.28V147.89l1.983-1.049V152.4Q231.785,154.888,234.156,154.888Z" transform="translate(-204.999 -141.826)" fill="#fff"/>
      <path id="Path_8" data-name="Path 8" d="M276.374,149.882v-1.847h4.1a4.661,4.661,0,0,1-1.048-3.237,5.456,5.456,0,0,1,1.3-3.875,3.935,3.935,0,0,1,3.032-1.231,3.813,3.813,0,0,1,3.009,1.208,4.18,4.18,0,0,1,.912,2.8v2.166a4.107,4.107,0,0,1-1.117,2.986,3.949,3.949,0,0,1-2.849,1.026Zm9.347-6.087q0-2.279-1.961-2.28a2.07,2.07,0,0,0-1.755.855,3.91,3.91,0,0,0-.638,2.382,4.142,4.142,0,0,0,.615,2.394,1.905,1.905,0,0,0,1.642.889q2.1,0,2.1-2.188Zm-1.915-6.429a1,1,0,0,1-1.117-1.14,1.105,1.105,0,1,1,2.211,0Q284.9,137.367,283.805,137.367Z" transform="translate(-246.693 -134.973)" fill="#fff"/>
      <path id="Path_9" data-name="Path 9" d="M316.849,149.978a3.765,3.765,0,0,1-3.055-1.277,4.194,4.194,0,0,1-.912-2.781v-9.6l1.961-1.049v10.577a2,2,0,0,0,2.234,2.28h1.5v1.847Z" transform="translate(-268.019 -135.069)" fill="#fff"/>
      <path id="Path_10" data-name="Path 10" d="M331.231,147.843h1.5v1.847H331a3.824,3.824,0,0,1-2.986-1.208,3.826,3.826,0,0,1-2.987,1.208H323.3v-1.847h1.5a2,2,0,0,0,2.234-2.28v-4.719L329,139.8v5.767A2,2,0,0,0,331.231,147.843Zm-3.6-10.805a1,1,0,0,1-1.117-1.14.988.988,0,0,1,1.117-1.117.977.977,0,0,1,1.094,1.117Q328.724,137.038,327.629,137.038Z" transform="translate(-274.104 -134.781)" fill="#fff"/>
      <path id="Path_11" data-name="Path 11" d="M342.7,149.69v-1.847h1.5a2,2,0,0,0,2.234-2.28v-4.719L348.4,139.8v5.836a4.036,4.036,0,0,1-1.163,3.055,3.937,3.937,0,0,1-2.8,1Zm1.755-12.652a1,1,0,0,1-1.117-1.14,1.106,1.106,0,1,1,2.211,0Q345.553,137.038,344.458,137.038Zm2.9,0a1,1,0,0,1-1.117-1.14,1.106,1.106,0,1,1,2.211,0Q348.448,137.038,347.353,137.038Z" transform="translate(-285.439 -134.781)" fill="#fff"/>
    </g>
    <g id="Group_3" data-name="Group 3" transform="translate(37.166 56.554)">
      <path id="Path_12" data-name="Path 12" d="M94.974,87.978c0,4.478.033,8.029-.009,11.579a9.3,9.3,0,0,1-4.715,8.337q-9.68,5.735-19.485,11.255a9.121,9.121,0,0,1-9.359,0q-9.8-5.522-19.486-11.253a9.23,9.23,0,0,1-4.724-8.32q-.053-11.079,0-22.159a9.247,9.247,0,0,1,4.732-8.326q9.681-5.731,19.485-11.253a9.118,9.118,0,0,1,9.358.01q9.8,5.525,19.482,11.257a8.908,8.908,0,0,1,4.523,7.119C95.207,80.457,94.764,84.683,94.974,87.978Zm-2.332.65h-.007q0-5.447,0-10.894A7.412,7.412,0,0,0,88.7,70.891q-9.261-5.358-18.527-10.706a7.662,7.662,0,0,0-8.224.018C55.782,63.783,49.6,67.335,43.425,70.91a7.342,7.342,0,0,0-3.9,6.739c-.01,7.222.012,14.444-.019,21.665a7.321,7.321,0,0,0,3.927,6.8q9.262,5.358,18.526,10.71a7.664,7.664,0,0,0,8.225.006q9.256-5.366,18.526-10.711a7.418,7.418,0,0,0,3.932-6.845Q92.639,93.952,92.642,88.628Z" transform="translate(-37.166 -56.554)" fill="#f8b916"/>
      <path id="Path_13" data-name="Path 13" d="M95.932,92.059q0,5.325,0,10.649A7.418,7.418,0,0,1,92,109.553q-9.258,5.363-18.526,10.711a7.664,7.664,0,0,1-8.225-.006q-9.254-5.37-18.526-10.71a7.321,7.321,0,0,1-3.927-6.8c.03-7.222.009-14.444.019-21.665a7.342,7.342,0,0,1,3.9-6.739c6.172-3.576,12.357-7.128,18.526-10.708a7.662,7.662,0,0,1,8.224-.018q9.257,5.364,18.527,10.706a7.412,7.412,0,0,1,3.933,6.843q0,5.447,0,10.894Zm-31.226-8.7a15.9,15.9,0,0,0-7.5-1.455c-3.105.26-5.686,1.483-6.995,4.517-1.571,3.642.605,7.647,4.856,8.9,3.623,1.064,6.923.06,10.033-1.83a52.312,52.312,0,0,0,5.826-4.457,25.87,25.87,0,0,1,5.651-3.838,8.737,8.737,0,0,1,6.768-.551A4.611,4.611,0,0,1,86.7,88.988a4.933,4.933,0,0,1-3.925,4.153A9.221,9.221,0,0,1,74.8,91.556c-.67-.513-1.266-.628-1.785.057s-.158,1.327.429,1.781a4.4,4.4,0,0,1,1.559,3.059c.615,4.223-1.284,7.3-4.434,9.855-.884.717-1.571.815-2.414.024-.728-.683-2.239-1.306-2.007-2.039.3-.952,1.787-1.064,2.907-1.108.845-.033,1.51-.359,1.444-1.276s-.786-1.151-1.614-1.077a8.593,8.593,0,0,0-3.719,1.1c-.227.135-.521.474-.749.2a3.831,3.831,0,0,1-.714-1.92c-.1-.6.341-.765.731-.978a10,10,0,0,1,4.7-1.177c.816-.014,1.394-.371,1.373-1.21-.022-.861-.66-1.134-1.455-1.112A12.107,12.107,0,0,0,62.773,97.5c-1.572.991-1.751,1.393-1.347,3.242.914,4.183,3.85,6.673,7.337,8.685a1.406,1.406,0,0,0,1.4-.085A13.015,13.015,0,0,0,77.322,96.13c-.1-.744.056-.843.734-.682a9.661,9.661,0,0,0,7.464-1.041c3.988-2.369,4.717-7.06,1.514-10.165a8.389,8.389,0,0,0-5.5-2.353,13.685,13.685,0,0,0-9.093,3.027c-2.134,1.571-4.15,3.3-6.234,4.938a16.514,16.514,0,0,1-5.738,3.181,7.246,7.246,0,0,1-6.745-1.019A3.881,3.881,0,0,1,53.06,86.2a5.321,5.321,0,0,1,3.45-1.857,13.177,13.177,0,0,1,8.347,1.73c1.515.79,2.193.389,2.22-1.347.013-.857.019-1.714,0-2.571a2.2,2.2,0,0,1,1.56-2.464,2.328,2.328,0,0,1,2.913,1.363c.371.652.838,1.017,1.587.686a1.057,1.057,0,0,0,.564-1.536,2.1,2.1,0,0,1,.149-2.463,1,1,0,0,0-.317-1.408c-.476-.386-1.172-.437-1.417.053-.605,1.206-1.5,1.063-2.53.867a2.4,2.4,0,0,0-1.208.079.961.961,0,0,1-1.388-.514,1.094,1.094,0,0,0-1.723-.522c-.73.494-.613,1.149-.216,1.826.2.338.612.691.378,1.1A7.934,7.934,0,0,0,64.706,83.358Z" transform="translate(-40.456 -59.985)" fill="#2c281d"/>
      <path id="Path_14" data-name="Path 14" d="M74.405,102.473a7.934,7.934,0,0,1,.726-4.132c.234-.41-.18-.762-.378-1.1-.4-.677-.514-1.333.216-1.826a1.094,1.094,0,0,1,1.723.522.961.961,0,0,0,1.388.514,2.4,2.4,0,0,1,1.208-.079c1.025.2,1.925.339,2.53-.867.245-.489.941-.439,1.417-.053a1,1,0,0,1,.317,1.408,2.1,2.1,0,0,0-.149,2.463,1.057,1.057,0,0,1-.564,1.536c-.75.331-1.216-.035-1.587-.686A2.328,2.328,0,0,0,78.34,98.81a2.2,2.2,0,0,0-1.56,2.464c.016.857.01,1.714,0,2.571-.027,1.735-.7,2.137-2.22,1.347a13.177,13.177,0,0,0-8.347-1.73,5.321,5.321,0,0,0-3.45,1.857,3.881,3.881,0,0,0,.662,5.813,7.246,7.246,0,0,0,6.745,1.019,16.515,16.515,0,0,0,5.738-3.181c2.084-1.638,4.1-3.367,6.234-4.938A13.685,13.685,0,0,1,91.231,101a8.389,8.389,0,0,1,5.5,2.353c3.2,3.1,2.475,7.8-1.514,10.165a9.661,9.661,0,0,1-7.464,1.041c-.678-.161-.83-.062-.734.682a13.015,13.015,0,0,1-7.162,13.217,1.406,1.406,0,0,1-1.4.085c-3.487-2.013-6.423-4.5-7.337-8.685-.4-1.849-.226-2.251,1.347-3.242a12.107,12.107,0,0,1,6.278-1.764c.8-.022,1.433.251,1.455,1.112.021.84-.556,1.2-1.373,1.21a10,10,0,0,0-4.7,1.177c-.39.213-.83.379-.731.978a3.831,3.831,0,0,0,.714,1.92c.228.27.522-.069.749-.2a8.593,8.593,0,0,1,3.719-1.1c.828-.074,1.549.161,1.614,1.077s-.6,1.243-1.444,1.276c-1.12.044-2.607.156-2.907,1.108-.231.733,1.28,1.357,2.007,2.039.843.791,1.53.692,2.414-.024,3.15-2.555,5.049-5.632,4.434-9.855a4.4,4.4,0,0,0-1.559-3.059c-.587-.455-.958-1.082-.429-1.781s1.115-.57,1.785-.057a9.221,9.221,0,0,0,7.967,1.585,4.933,4.933,0,0,0,3.925-4.153,4.611,4.611,0,0,0-3.348-4.349,8.737,8.737,0,0,0-6.768.551,25.87,25.87,0,0,0-5.651,3.838A52.311,52.311,0,0,1,74.8,112.6c-3.11,1.89-6.41,2.894-10.033,1.83-4.251-1.248-6.428-5.254-4.856-8.9,1.309-3.034,3.89-4.257,6.995-4.517A15.9,15.9,0,0,1,74.405,102.473Z" transform="translate(-50.155 -79.1)" fill="#f8b916"/>
    </g>
  </g>
</svg>
